{"title":"Life.Below.Zero.S03E04.HDTV.x264-YesTV","uid":10167325,"size":479463930,"categoryP":"video","categoryS":"tv_shows","magnet":"?xt=urn:btih:65932f2258692fd1afc88f445b47945c623b7869&amp;dn=Life.Below.Zero.S03E04.HDTV.x264-YesTV&amp;tr=udp%3A%2F%2Ftracker.openbittorrent.com%3A80&amp;tr=udp%3A%2F%2Fopen.demonii.com%3A1337&amp;tr=udp%3A%2F%2Ftracker.coppersurfer.tk%3A6969&amp;tr=udp%3A%2F%2Fexodus.desync.com%3A6969","seeders":5,"leechers":0,"uploader":"imPROvise","files":3,"time":1400361094,"description":"General\nName                                     : Life.Below.Zero.S03E04.HDTV.x264-YesTV\nFormat                                   : MPEG-4\nFormat profile                           : Base Media\nCodec ID                                 : isom\nFile size                                : 449 MiB\nDuration                                 : 43mn 58s\nOverall bit rate mode                    : Variable\nOverall bit rate                         : 1 428 Kbps\n\n\nVideo\nID                                       : 1\nFormat                                   : AVC\nFormat/Info                              : Advanced Video Codec\nFormat profile                           : &lt;a class=&quot;__cf_email__&quot; href=&quot;/cdn-cgi/l/email-protection&quot; data-cfemail=&quot;044c6d636c4448372a35&quot;&gt;[email&amp;#160;protected]&lt;/a&gt;&lt;script cf-hash='f9e31' type=&quot;text/javascript&quot;&gt;\n/* &lt;![CDATA[ */!function(){try{var t=&quot;currentScript&quot;in document?document.currentScript:function(){for(var t=document.getElementsByTagName(&quot;script&quot;),e=t.length;e--;)if(t[e].getAttribute(&quot;cf-hash&quot;))return t[e]}();if(t&amp;&amp;t.previousSibling){var e,r,n,i,c=t.previousSibling,a=c.getAttribute(&quot;data-cfemail&quot;);if(a){for(e=&quot;&quot;,r=parseInt(a.substr(0,2),16),n=2;a.length-n;n+=2)i=parseInt(a.substr(n,2),16)^r,e+=String.fromCharCode(i);e=document.createTextNode(e),c.parentNode.replaceChild(e,c)}}}catch(u){}}();/* ]]&gt; */&lt;/script&gt;\nFormat settings, CABAC                   : Yes\nFormat settings, ReFrames                : 5 frames\nCodec ID                                 : avc1\nCodec ID/Info                            : Advanced Video Coding\nDuration                                 : 43mn 58s\nBit rate                                 : 1 294 Kbps\nMaximum bit rate                         : 6 595 Kbps\nWidth                                    : 720 pixels\nHeight                                   : 406 pixels\nDisplay aspect ratio                     : 16:9\nFrame rate mode                          : Constant\nFrame rate                               : 29.970 fps\nColor space                              : YUV\nChroma subsampling                       : 4:2:0\nBit depth                                : 8 bits\nScan type                                : Progressive\nBits/(Pixel*Frame)                       : 0.148\nStream size                              : 407 MiB (91%)\nWriting library                          : x264 core 142 r2431 ac76440\n\n\nAudio\nID                                       : 2\nFormat                                   : AAC\nFormat/Info                              : Advanced Audio Codec\nFormat profile                           : LC\nCodec ID                                 : 40\nDuration                                 : 43mn 58s\nBit rate mode                            : Variable\nBit rate                                 : 129 Kbps\nMaximum bit rate                         : 177 Kbps\nChannel(s)                               : 2 channels\nChannel positions                        : Front: L R\nSampling rate                            : 48.0 KHz\nCompression mode                         : Lossy\nStream size                              : 40.6 MiB (9%)\nLanguage                                 : English  ","torrent":{"xt":"urn:btih:65932f2258692fd1afc88f445b47945c623b7869","amp;dn":"Life.Below.Zero.S03E04.HDTV.x264-YesTV","amp;tr":["udp%3A%2F%2Ftracker.openbittorrent.com%3A80","udp%3A%2F%2Fopen.demonii.com%3A1337","udp%3A%2F%2Ftracker.coppersurfer.tk%3A6969","udp%3A%2F%2Fexodus.desync.com%3A6969"],"infoHash":"65932f2258692fd1afc88f445b47945c623b7869","infoHashBuffer":{"type":"Buffer","data":[101,147,47,34,88,105,47,209,175,200,143,68,91,71,148,92,98,59,120,105]},"announce":[],"urlList":[]}}